<svg width="167" height="147" viewBox="0 0 167 147" fill="none" xmlns="http://www.w3.org/2000/svg">
<g style="mix-blend-mode:multiply">
<path fill-rule="evenodd" clip-rule="evenodd" d="M135.03 24.9277C151.724 31.9556 163.472 48.6988 166.316 66.1654C169.16 83.632 162.977 101.822 150.735 114.741C138.492 127.66 120.191 135.412 101.394 140.579C82.4743 145.85 63.0596 148.538 48.2204 143.06C33.3812 137.582 23.1174 123.836 14.2139 109.884C5.31036 96.0344 -2.23291 81.9784 0.982255 69.9895C4.32108 58.0005 18.2947 48.182 32.3919 40.844C46.4892 33.5059 60.4628 28.545 78.3935 24.721C96.3242 20.7935 118.212 18.003 135.03 24.9277Z" fill="#F6F6F6"/>
</g>
<path fill-rule="evenodd" clip-rule="evenodd" d="M126.6 23.2862C125.887 23.2862 125.307 22.7058 125.307 21.9925C125.307 21.2791 125.887 20.6988 126.6 20.6988C127.314 20.6988 127.894 21.2791 127.894 21.9925C127.894 22.7058 127.314 23.2862 126.6 23.2862Z" fill="#CACAFB"/>
<path fill-rule="evenodd" clip-rule="evenodd" d="M41.2178 23.2862C40.5044 23.2862 39.9241 22.7058 39.9241 21.9925C39.9241 21.2791 40.5044 20.6988 41.2178 20.6988C41.9311 20.6988 42.5114 21.2791 42.5114 21.9925C42.5114 22.7058 41.9311 23.2862 41.2178 23.2862Z" fill="#CACAFB"/>
<path fill-rule="evenodd" clip-rule="evenodd" d="M46.3925 87.97C45.6791 87.97 45.0988 87.3896 45.0988 86.6763C45.0988 85.9629 45.6791 85.3826 46.3925 85.3826C47.1058 85.3826 47.6861 85.9629 47.6861 86.6763C47.6861 87.3896 47.1058 87.97 46.3925 87.97Z" fill="#CACAFB"/>
<path fill-rule="evenodd" clip-rule="evenodd" d="M56.7419 7.76205C56.0285 7.76205 55.4482 7.18171 55.4482 6.46837C55.4482 5.75498 56.0285 5.1747 56.7419 5.1747C57.4552 5.1747 58.0355 5.75498 58.0355 6.46837C58.0355 7.18171 57.4552 7.76205 56.7419 7.76205Z" fill="#CACAFB"/>
<path fill-rule="evenodd" clip-rule="evenodd" d="M103.314 100.907C102.601 100.907 102.021 100.326 102.021 99.613C102.021 98.8996 102.601 98.3193 103.314 98.3193C104.028 98.3193 104.608 98.8996 104.608 99.613C104.608 100.326 104.028 100.907 103.314 100.907Z" fill="#CACAFB"/>
<path d="M102.068 52.6937C102.26 52.0054 102.973 51.6028 103.661 51.7944C106.688 52.6372 109.008 55.011 109.622 57.9544C109.768 58.6538 109.32 59.3391 108.62 59.4851C107.921 59.631 107.236 59.1824 107.09 58.483C106.678 56.5083 105.082 54.8758 102.967 54.287C102.279 54.0953 101.876 53.382 102.068 52.6937Z" fill="#E1000F"/>
<path fill-rule="evenodd" clip-rule="evenodd" d="M89.0838 59.5091C89.0838 52.3742 94.8859 46.5723 102.021 46.5723C109.155 46.5723 114.957 52.3742 114.957 59.5091C114.957 62.8288 113.701 65.8601 111.639 68.1526L119.265 81.3623C120.337 83.2185 119.701 85.5921 117.845 86.6638C116.055 87.6973 113.784 87.1428 112.663 85.4375L112.543 85.2433L104.96 72.1091C104.016 72.3294 103.031 72.4458 102.021 72.4458C94.8861 72.4458 89.0838 66.6436 89.0838 59.5091ZM107.452 71.2501L114.784 83.9496C115.141 84.5684 115.932 84.7804 116.551 84.4231C117.126 84.0914 117.35 83.3855 117.093 82.7909L117.025 82.6559L109.678 69.931C108.985 70.4413 108.24 70.8842 107.452 71.2501ZM112.37 59.5091C112.37 53.8032 107.726 49.1597 102.021 49.1597C96.3148 49.1597 91.6711 53.8032 91.6711 59.5091C91.6711 65.2146 96.315 69.8585 102.021 69.8585C107.726 69.8585 112.37 65.2146 112.37 59.5091Z" fill="#E1000F"/>
<path d="M121.417 23.1353C121.342 22.4919 120.795 21.9925 120.132 21.9925H50.2735L50.1226 22.0012C49.4792 22.0759 48.9798 22.6227 48.9798 23.2862V82.7952L48.9885 82.9461C49.0632 83.5895 49.61 84.0889 50.2735 84.0889H104.608L104.759 84.0802C105.402 84.0055 105.902 83.4587 105.902 82.7952L105.893 82.6444C105.818 82.001 105.271 81.5016 104.608 81.5016H51.5672V34.9292H99.4332L99.584 34.9205C100.227 34.8458 100.727 34.299 100.727 33.6356C100.727 32.9211 100.148 32.3419 99.4332 32.3419H51.5672V24.5798H118.838V32.3419H107.195L107.044 32.3506C106.401 32.4253 105.902 32.9721 105.902 33.6356C105.902 34.3501 106.481 34.9292 107.195 34.9292H118.838V72.4458L118.847 72.5967C118.922 73.2401 119.469 73.7395 120.132 73.7395C120.846 73.7395 121.426 73.1603 121.426 72.4458V23.2862L121.417 23.1353Z" fill="#000091"/>
<path d="M55.4482 29.7545C54.7349 29.7545 54.1545 29.1742 54.1545 28.4609C54.1545 27.7475 54.7349 27.1672 55.4482 27.1672C56.1615 27.1672 56.7419 27.7475 56.7419 28.4609C56.7419 29.1742 56.1615 29.7545 55.4482 29.7545Z" fill="#000091"/>
<path d="M59.3292 28.4609C59.3292 29.1742 59.9096 29.7545 60.6229 29.7545C61.3362 29.7545 61.9166 29.1742 61.9166 28.4609C61.9166 27.7475 61.3362 27.1672 60.6229 27.1672C59.9096 27.1672 59.3292 27.7475 59.3292 28.4609Z" fill="#000091"/>
<path d="M65.7976 29.7545C65.0843 29.7545 64.5039 29.1742 64.5039 28.4609C64.5039 27.7475 65.0843 27.1672 65.7976 27.1672C66.5109 27.1672 67.0913 27.7475 67.0913 28.4609C67.0913 29.1742 66.5109 29.7545 65.7976 29.7545Z" fill="#000091"/>
<path d="M114.957 27.1672C115.672 27.1672 116.251 27.7464 116.251 28.4609C116.251 29.1243 115.752 29.6711 115.108 29.7458L114.957 29.7545H76.147C75.4325 29.7545 74.8533 29.1753 74.8533 28.4609C74.8533 27.7974 75.3527 27.2506 75.9961 27.1759L76.147 27.1672H114.957Z" fill="#000091"/>
<path d="M85.2027 43.985C85.2027 43.2705 84.6235 42.6913 83.9091 42.6913H60.6229L60.472 42.7C59.8286 42.7747 59.3292 43.3215 59.3292 43.985C59.3292 44.6995 59.9084 45.2787 60.6229 45.2787H83.9091L84.0599 45.27C84.7033 45.1952 85.2027 44.6484 85.2027 43.985Z" fill="#000091"/>
<path d="M78.7344 50.4534C79.4488 50.4534 80.028 51.0326 80.028 51.747C80.028 52.4105 79.5286 52.9573 78.8852 53.032L78.7344 53.0407H60.6229C59.9084 53.0407 59.3292 52.4615 59.3292 51.747C59.3292 51.0836 59.8286 50.5368 60.472 50.4621L60.6229 50.4534H78.7344Z" fill="#000091"/>
<path d="M77.4407 59.5091C77.4407 58.7946 76.8615 58.2154 76.147 58.2154H60.6229L60.472 58.2241C59.8286 58.2988 59.3292 58.8456 59.3292 59.5091C59.3292 60.2236 59.9084 60.8028 60.6229 60.8028H76.147L76.2979 60.7941C76.9413 60.7193 77.4407 60.1725 77.4407 59.5091Z" fill="#000091"/>
</svg>
